<?xml version="1.0" encoding="UTF-8"?>
<svg width="11px" height="20px" viewBox="0 0 11 20" version="1.1" xmlns="http://www.w3.org/2000/svg" xmlns:xlink="http://www.w3.org/1999/xlink">
    <!-- Generator: Sketch 61 (89581) - https://sketch.com -->
    <title>形状结合</title>
    <desc>Created with Sketch.</desc>
    <g id="移动设计器" stroke="none" stroke-width="1" fill="none" fill-rule="evenodd">
        <g id="移动端控件-拖出形态" transform="translate(-6006.000000, -2148.000000)" fill="#E14C46" fill-rule="nonzero">
            <g id="编组-43" transform="translate(5644.000000, 2083.000000)">
                <g id="form-c/text-field/sline-normal备份" transform="translate(98.000000, 54.000000)">
                    <g id="编组-103" transform="translate(195.000000, 10.000000)">
                        <path d="M80,18.7075043 L80,1.51867676 C79.8197279,1.50554908 79.6014014,1.53933584 79.3450205,1.62003705 C78.9604492,1.74108887 78.482254,1.97920227 78.1168542,2.68589439 L76.3971934,6.17030788 C76.2369651,6.49496571 75.927243,6.71999202 75.5689618,6.77205333 L71.7236832,7.33080501 C71.2666454,7.39721649 70.8442464,7.61243956 70.5218783,7.9431552 C69.7123257,8.77367072 69.7293196,10.1032086 70.5598351,10.9127611 L73.3423048,13.6249988 C73.6015595,13.8777097 73.7198629,14.2418099 73.6586611,14.5986434 L73.0018091,18.4283844 C72.9237378,18.8835754 72.9978986,19.3518084 73.2128106,19.7605954 C73.7525123,20.7871691 75.0222294,21.1818567 76.048803,20.642155 C77.6950646,19.7681467 78.636881,19.2739538 78.8742523,19.1595764 C79.0444946,19.0775452 79.3739166,18.8833008 79.6287689,18.7754364 C79.705888,18.7427963 79.8296317,18.7201523 80,18.7075043 Z" id="形状结合"></path>
                    </g>
                </g>
            </g>
        </g>
    </g>
</svg>