<?xml version="1.0" encoding="UTF-8"?>
<svg width="24px" height="24px" viewBox="0 0 24 24" version="1.1" xmlns="http://www.w3.org/2000/svg" xmlns:xlink="http://www.w3.org/1999/xlink">
    <!-- Generator: Sketch 61 (89581) - https://sketch.com -->
    <title>字体_文字操作_jurassic</title>
    <desc>Created with Sketch.</desc>
    <g id="移动设计器" stroke="none" stroke-width="1" fill="none" fill-rule="evenodd">
        <g id="移动端控件-拖出形态-part3" transform="translate(-333.000000, -3472.000000)" stroke="#505766" stroke-width="1.4">
            <g id="编组-43" transform="translate(307.000000, 3458.000000)">
                <g id="编组-7备份-2">
                    <g id="字体_文字操作_jurassic" transform="translate(25.000000, 14.000000)">
                        <path d="M11.2554542,19.3914309 L7.81613246,21.1995893 C7.03398111,21.6107906 6.06657765,21.3100762 5.65537635,20.5279249 C5.49163383,20.2164681 5.43513035,19.8597191 5.4946133,19.5129069 L6.1514653,15.6831659 C6.24048601,15.1641354 6.06840843,14.6345351 5.69131069,14.2669556 L2.90884096,11.554718 C2.27606723,10.937916 2.26311954,9.92493478 2.87992148,9.29216104 C3.12553526,9.04018722 3.44736312,8.87620774 3.79558237,8.82560852 L7.64086096,8.26685683 C8.16199722,8.1911313 8.61250217,7.8638203 8.84556139,7.39159073 L10.5652223,3.90717724 C10.9562979,3.11477138 11.9156993,2.78942897 12.7081051,3.18050465 C13.0236453,3.33623303 13.2790494,3.59163707 13.4347777,3.90717724 L15.1544386,7.39159073 C15.3874978,7.8638203 15.8380028,8.1911313 16.359139,8.26685683 L20.2044176,8.82560852 C21.0788894,8.95267671 21.6847798,9.76458528 21.5577116,10.6390571 C21.5071123,10.9872763 21.3431329,11.3091042 21.091159,11.554718 L18.3086893,14.2669556 C17.9315916,14.6345351 17.759514,15.1641354 17.8485347,15.6831659 L18.5053867,19.5129069 C18.6547643,20.3838453 18.0698238,21.2109748 17.1988855,21.3603524 C16.8520732,21.4198353 16.4953243,21.3633318 16.1838675,21.1995893 L12.7445458,19.3914309 C12.2784274,19.1463779 11.7215726,19.1463779 11.2554542,19.3914309 Z" id="星形"></path>
                    </g>
                </g>
            </g>
        </g>
    </g>
</svg>